<svg width="32" height="32" viewBox="0 0 32 32" fill="none" xmlns="http://www.w3.org/2000/svg">
<g clip-path="url(#clip0_302_5)">
<path fill-rule="evenodd" clip-rule="evenodd" d="M19.6539 11.5681C19.4288 11.341 19.0639 11.341 18.8389 11.5681L8.52485 21.9754C7.13532 23.3775 4.85495 23.2818 3.58561 21.7681C2.45719 20.4225 2.53938 18.4287 3.77465 17.1822L5.91646 15.021H1.3913C0.622908 15.021 0 14.3925 0 13.6171C0 12.8418 0.622908 12.2132 1.3913 12.2132H8.15573C9.80842 12.2132 10.6361 14.2295 9.46746 15.4087L5.74225 19.1676C5.53031 19.3815 5.51621 19.7236 5.70981 19.9544C5.9276 20.2141 6.31885 20.2306 6.55725 19.99L16.8713 9.58267C18.183 8.25907 20.3097 8.25907 21.6215 9.58267C22.9332 10.9063 22.9332 13.0523 21.6215 14.3759L16.7519 19.2895C16.5269 19.5166 16.5269 19.8848 16.7519 20.1119C16.977 20.339 17.3419 20.339 17.5669 20.1119L24.8514 12.7615C25.1993 12.4105 25.6711 12.2132 26.1631 12.2132H30.6087C31.3771 12.2132 32 12.8418 32 13.6171C32 14.3925 31.3771 15.021 30.6087 15.021H26.5473L19.5345 22.0973C18.2228 23.4209 16.096 23.4209 14.7843 22.0973C13.4726 20.7737 13.4726 18.6277 14.7843 17.3041L19.6539 12.3905C19.8789 12.1634 19.8789 11.7952 19.6539 11.5681Z" fill="white"/>
</g>
<defs>
<clipPath id="clip0_302_5">
<rect width="32" height="32" rx="5.12" fill="white"/>
</clipPath>
</defs>
</svg>
